<svg  xmlns="http://www.w3.org/2000/svg">
<symbol id="waheguru-project">
<path d="M46.3 139.2C35.1667 139.133 26.5667 136.867 20.5 132.4C14.4333 127.933 11.4 121.3 11.4 112.5C11.4 103.633 14.4 97 20.4 92.6C26.4 88.1333 34.9667 85.9 46.1 85.9H91.8V59.7H116.8V104.3H49.5C45.5 104.3 42.4667 104.933 40.4 106.2C38.3333 107.467 37.3 109.567 37.3 112.5C37.3 115.3 38.3 117.367 40.3 118.7C42.3667 119.967 45.3667 120.633 49.3 120.7H112.4V139.2H46.3ZM96.8 176.5C86.9333 176.5 78.2333 175.1 70.7 172.3C63.2333 169.5 57.0333 164.933 52.1 158.6C47.1667 152.2 43.6333 143.733 41.5 133.2H67.1C67.9667 139.333 69.8667 144.167 72.8 147.7C75.7333 151.167 79.5333 153.633 84.2 155.1C88.8667 156.5 94.1667 157.2 100.1 157.2C103.167 157.2 106.233 157 109.3 156.6C112.433 156.133 115.567 155.533 118.7 154.8L117.2 174C114.067 174.733 110.867 175.333 107.6 175.8C104.333 176.267 100.733 176.5 96.8 176.5ZM10 69V50.3H126.6V69H101.2L99.5 68.5L10 69ZM0.9 69L2.4 50.3H15.1V69H0.9ZM118.8 69V50.3H132.7L131.1 69H118.8ZM143.386 127.5V58.9H168.186V127.5H143.386ZM126.486 69L127.986 50.3H185.186L183.586 69H126.486ZM195.925 53.8V39.8C195.925 27.0667 199.292 17.3333 206.025 10.6C212.825 3.79999 222.625 0.399993 235.425 0.399993C247.758 0.399993 257.292 3.73333 264.025 10.4C270.825 17 274.225 26.4667 274.225 38.8V41.6H249.425V38.7C249.358 32.7 248.125 28.1667 245.725 25.1C243.325 22.0333 239.858 20.5 235.325 20.5C230.325 20.5 226.592 22.1 224.125 25.3C221.725 28.4333 220.525 33.2667 220.525 39.8V53.9L195.925 53.8ZM195.925 173V64.7L220.725 64.8V173H195.925ZM179.025 69L180.525 50.3H242.925L241.325 69H179.025ZM299.469 175.8C287.135 175.8 276.835 173.7 268.569 169.5C260.369 165.3 254.202 159.733 250.069 152.8C246.002 145.867 243.969 138.267 243.969 130V128.8C243.969 116.867 247.435 107.767 254.369 101.5C261.302 95.2333 271.502 92.1 284.969 92.1H303.969L300.669 112.5H288.169C281.902 112.5 277.202 114.033 274.069 117.1C271.002 120.167 269.469 124.433 269.469 129.9V130.7C269.469 135.3 270.669 139.433 273.069 143.1C275.535 146.7 279.002 149.567 283.469 151.7C288.002 153.767 293.335 154.8 299.469 154.8C307.402 154.8 313.135 152.933 316.669 149.2C320.202 145.467 321.969 140.267 321.969 133.6V59H346.769V134.1C346.769 147.367 342.769 157.633 334.769 164.9C326.769 172.167 315.002 175.8 299.469 175.8ZM237.869 69V50.3H355.669V69H237.869ZM231.369 69L232.869 50.3H245.569V69H231.369ZM349.469 69V50.3H363.369L361.769 69H349.469ZM419.25 175.9C408.383 175.9 399.283 173.867 391.95 169.8C384.683 165.733 379.217 160.267 375.55 153.4C371.95 146.533 370.15 138.867 370.15 130.4V129C370.15 117.2 373.45 108.133 380.05 101.8C386.717 95.4 397.25 92.2 411.65 92.2H446.95V112.7H414.65C408.183 112.7 403.383 114.167 400.25 117.1C397.183 119.967 395.65 124.4 395.65 130.4V131.4C395.65 136.067 396.55 140.167 398.35 143.7C400.217 147.233 402.883 149.967 406.35 151.9C409.883 153.833 414.15 154.8 419.15 154.8C424.683 154.8 428.95 153.333 431.95 150.4C435.017 147.467 436.55 143.367 436.55 138.1V103.2L436.25 102.1V66H461.15V139C461.15 151.067 457.417 160.233 449.95 166.5C442.55 172.767 432.317 175.9 419.25 175.9ZM363.05 69V50.3H501.15V69H363.05ZM516.65 69V50.3H530.45L528.95 69H516.65ZM488.75 173V50.3H523.95V69H513.45V173H488.75ZM357.15 69L358.65 50.3H371.35V69H357.15ZM450.878 210.9C443.411 210.9 436.211 210.267 429.278 209C422.345 207.8 416.211 206.033 410.878 203.7L409.478 184.5C415.345 186.767 422.011 188.533 429.478 189.8C436.878 191.067 444.345 191.7 451.878 191.7C459.411 191.7 466.778 191.067 473.978 189.8C481.178 188.533 487.578 186.8 493.178 184.6L491.778 203.7C486.378 205.967 480.078 207.733 472.878 209C465.745 210.267 458.411 210.9 450.878 210.9ZM592.747 175.8C580.547 175.8 570.314 173.733 562.047 169.6C553.78 165.4 547.547 159.867 543.347 153C539.214 146.133 537.147 138.667 537.147 130.6V129.6C537.147 117.667 540.714 108.4 547.847 101.8C555.047 95.2 565.514 91.9 579.247 91.9H627.447V112.3H582.447C576.047 112.3 571.147 113.767 567.747 116.7C564.414 119.633 562.747 124 562.747 129.8V130.7C562.747 135.433 563.947 139.667 566.347 143.4C568.747 147.067 572.18 149.967 576.647 152.1C581.18 154.167 586.58 155.2 592.847 155.2C600.914 155.2 606.747 153.467 610.347 150C614.014 146.467 615.847 141.533 615.847 135.2V103.6L615.647 101.3V66H640.447V135.8C640.447 148.6 636.38 158.467 628.247 165.4C620.18 172.333 608.347 175.8 592.747 175.8ZM531.247 69V50.3H649.547V69H531.247ZM523.947 69L525.447 50.3H538.147V69H523.947ZM643.247 69V50.3H657.147L655.547 69H643.247ZM591.503 203.7C583.836 203.633 576.503 203 569.503 201.8C562.503 200.6 556.403 198.9 551.203 196.7L549.903 180.7C555.436 182.833 561.936 184.533 569.403 185.8C576.803 187.067 584.436 187.7 592.303 187.7C600.236 187.7 607.803 187.033 615.003 185.7C622.203 184.433 628.436 182.767 633.703 180.7L632.503 196.7C627.37 198.833 621.203 200.5 614.003 201.7C606.803 202.967 599.303 203.633 591.503 203.7ZM591.403 229.5C583.67 229.5 576.303 228.9 569.303 227.7C562.303 226.5 556.203 224.8 551.003 222.6L549.803 206.6C555.336 208.733 561.803 210.4 569.203 211.6C576.603 212.867 584.27 213.5 592.203 213.5C600.136 213.5 607.67 212.867 614.803 211.6C622.003 210.4 628.236 208.733 633.503 206.6L632.303 222.6C627.236 224.8 621.103 226.5 613.903 227.7C606.703 228.9 599.203 229.5 591.403 229.5Z"/>
</symbol>
</svg>
