<svg  xmlns="http://www.w3.org/2000/svg">
<symbol id="waheguru-profile"><path d="M90.8 46.3C90.8667 35.1667 93.1333 26.5667 97.6 20.5C102.067 14.4333 108.7 11.4 117.5 11.4C126.367 11.4 133 14.4 137.4 20.4C141.867 26.4 144.1 34.9667 144.1 46.1L144.1 91.8L170.3 91.8L170.3 116.8L125.7 116.8L125.7 49.5C125.7 45.5 125.067 42.4667 123.8 40.4C122.533 38.3333 120.433 37.3 117.5 37.3C114.7 37.3 112.633 38.3 111.3 40.3C110.033 42.3667 109.367 45.3667 109.3 49.3L109.3 112.4L90.8 112.4L90.8 46.3ZM53.5 96.8C53.5 86.9333 54.9 78.2333 57.7 70.7C60.5 63.2333 65.0667 57.0333 71.4 52.1C77.8 47.1667 86.2667 43.6333 96.8 41.5L96.8 67.1C90.6667 67.9667 85.8333 69.8667 82.3 72.8C78.8333 75.7333 76.3667 79.5333 74.9 84.2C73.5 88.8667 72.8 94.1667 72.8 100.1C72.8 103.167 73 106.233 73.4 109.3C73.8667 112.433 74.4667 115.567 75.2 118.7L56 117.2C55.2667 114.067 54.6667 110.867 54.2 107.6C53.7333 104.333 53.5 100.733 53.5 96.8ZM161 10L179.7 10L179.7 126.6H161L161 101.2L161.5 99.5L161 10ZM161 0.9L179.7 2.4V15.1L161 15.1V0.9ZM161 118.8H179.7L179.7 132.7L161 131.1V118.8ZM102.5 143.386L171.1 143.386V168.186L102.5 168.186L102.5 143.386ZM161 126.486L179.7 127.986V185.186L161 183.586V126.486ZM176.2 195.925H190.2C202.933 195.925 212.667 199.292 219.4 206.025C226.2 212.825 229.6 222.625 229.6 235.425C229.6 247.758 226.267 257.292 219.6 264.025C213 270.825 203.533 274.225 191.2 274.225H188.4V249.425H191.3C197.3 249.358 201.833 248.125 204.9 245.725C207.967 243.325 209.5 239.858 209.5 235.325C209.5 230.325 207.9 226.592 204.7 224.125C201.567 221.725 196.733 220.525 190.2 220.525H176.1L176.2 195.925ZM57 195.925L165.3 195.925L165.2 220.725L57 220.725L57 195.925ZM161 179.025L179.7 180.525L179.7 242.925L161 241.325L161 179.025ZM54.2 299.469C54.2 287.135 56.3 276.835 60.5 268.569C64.7 260.369 70.2667 254.202 77.2 250.069C84.1333 246.002 91.7333 243.969 100 243.969H101.2C113.133 243.969 122.233 247.435 128.5 254.369C134.767 261.302 137.9 271.502 137.9 284.969V303.969L117.5 300.669V288.169C117.5 281.902 115.967 277.202 112.9 274.069C109.833 271.002 105.567 269.469 100.1 269.469H99.3C94.7 269.469 90.5667 270.669 86.9 273.069C83.3 275.535 80.4333 279.002 78.3 283.469C76.2333 288.002 75.2 293.335 75.2 299.469C75.2 307.402 77.0667 313.135 80.8 316.669C84.5333 320.202 89.7333 321.969 96.4 321.969L171 321.969V346.769L95.9 346.769C82.6333 346.769 72.3667 342.769 65.1 334.769C57.8333 326.769 54.2 315.002 54.2 299.469ZM161 237.869L179.7 237.869L179.7 355.669H161L161 237.869ZM161 231.369L179.7 232.869V245.569L161 245.569V231.369ZM161 349.469H179.7V363.369L161 361.769V349.469ZM54.1 419.25C54.1 408.383 56.1333 399.283 60.2 391.95C64.2667 384.683 69.7333 379.217 76.6 375.55C83.4667 371.95 91.1333 370.15 99.6 370.15H101C112.8 370.15 121.867 373.45 128.2 380.05C134.6 386.717 137.8 397.25 137.8 411.65L137.8 446.95L117.3 446.95L117.3 414.65C117.3 408.183 115.833 403.383 112.9 400.25C110.033 397.183 105.6 395.65 99.6 395.65H98.6C93.9333 395.65 89.8333 396.55 86.3 398.35C82.7667 400.217 80.0333 402.883 78.1 406.35C76.1667 409.883 75.2 414.15 75.2 419.15C75.2 424.683 76.6667 428.95 79.6 431.95C82.5333 435.017 86.6333 436.55 91.9 436.55L126.8 436.55L127.9 436.25H164L164 461.15L91 461.15C78.9333 461.15 69.7667 457.417 63.5 449.95C57.2333 442.55 54.1 432.317 54.1 419.25ZM161 363.05H179.7L179.7 501.15H161L161 363.05ZM161 516.65H179.7V530.45L161 528.95V516.65ZM57 488.75L179.7 488.75V523.95H161V513.45H57V488.75ZM161 357.15L179.7 358.65V371.35H161V357.15ZM19.1 450.878C19.1 443.411 19.7333 436.211 21 429.278C22.2 422.345 23.9667 416.211 26.3 410.878L45.5 409.478C43.2333 415.345 41.4667 422.011 40.2 429.478C38.9333 436.878 38.3 444.345 38.3 451.878C38.3 459.411 38.9333 466.778 40.2 473.978C41.4667 481.178 43.2 487.578 45.4 493.178L26.3 491.778C24.0333 486.378 22.2667 480.078 21 472.878C19.7333 465.745 19.1 458.411 19.1 450.878ZM54.2 592.747C54.2 580.547 56.2667 570.314 60.4 562.047C64.6 553.78 70.1333 547.547 77 543.347C83.8667 539.214 91.3333 537.147 99.4 537.147H100.4C112.333 537.147 121.6 540.714 128.2 547.847C134.8 555.047 138.1 565.514 138.1 579.247L138.1 627.447H117.7L117.7 582.447C117.7 576.047 116.233 571.147 113.3 567.747C110.367 564.414 106 562.747 100.2 562.747H99.3C94.5667 562.747 90.3333 563.947 86.6 566.347C82.9333 568.747 80.0333 572.18 77.9 576.647C75.8333 581.18 74.8 586.58 74.8 592.847C74.8 600.914 76.5333 606.747 80 610.347C83.5333 614.014 88.4667 615.847 94.8 615.847H126.4L128.7 615.647H164V640.447H94.2C81.4 640.447 71.5333 636.38 64.6 628.247C57.6667 620.18 54.2 608.347 54.2 592.747ZM161 531.247H179.7L179.7 649.547H161L161 531.247ZM161 523.947L179.7 525.447L179.7 538.147H161V523.947ZM161 643.247H179.7V657.147L161 655.547V643.247ZM26.3 591.503C26.3667 583.836 27 576.503 28.2 569.503C29.4 562.503 31.1 556.403 33.3 551.203L49.3 549.903C47.1667 555.436 45.4667 561.936 44.2 569.403C42.9333 576.803 42.3 584.436 42.3 592.303C42.3 600.236 42.9667 607.803 44.3 615.003C45.5667 622.203 47.2333 628.436 49.3 633.703L33.3 632.503C31.1667 627.37 29.5 621.203 28.3 614.003C27.0333 606.803 26.3667 599.303 26.3 591.503ZM0.5 591.403C0.5 583.67 1.1 576.303 2.29999 569.303C3.5 562.303 5.2 556.203 7.4 551.003L23.4 549.803C21.2667 555.336 19.6 561.803 18.4 569.203C17.1333 576.603 16.5 584.27 16.5 592.203C16.5 600.136 17.1333 607.67 18.4 614.803C19.6 622.003 21.2667 628.236 23.4 633.503L7.4 632.303C5.2 627.236 3.5 621.103 2.29999 613.903C1.1 606.703 0.5 599.203 0.5 591.403Z"/>
</symbol>
</svg>
