<svg width="64" height="64" viewBox="0 0 64 64" fill="none" xmlns="http://www.w3.org/2000/svg">
<path d="M3.03027 49.9999H10.8303C12.1249 50.0003 13.396 49.6536 14.511 48.9958C15.6261 48.338 16.5444 47.3932 17.1703 46.2599L26.4203 29.4799L31.2903 40.3399L25.9703 49.9999L33.7603 49.9999C35.0549 50.0003 36.326 49.6536 37.441 48.9958C38.5561 48.338 39.4744 47.3932 40.1003 46.2599L50.6903 27.0599L45.2803 14.9999L32.6203 37.9299L22.3403 14.9999L3.04027 49.9999H3.03027ZM59.4403 46.5999C59.6085 46.967 59.6814 47.3705 59.6523 47.7732C59.6232 48.176 59.4929 48.5648 59.2735 48.9038C59.0542 49.2428 58.7529 49.521 58.3974 49.7126C58.042 49.9042 57.644 50.003 57.2403 49.9999H48.9003L55.5603 37.9299L59.4403 46.5999Z" fill="black"/>
</svg>
